# xmcd CD database file
#
# Track frame offsets:
#	150
#	11982
#	26609
#	41607
#	60579
#	74611
#	94697
#	104949
#	121906
#	137283
#	149211
#	158208
#	171406
#
# Disc length: 2414 seconds
#
# Revision: 0
# Processed by: cddbd v1.5.2PL0 Copyright (c) Steve Scherf et al.
# Submitted via: CDex 1.70beta2
#
DISCID=c3096c0d
DTITLE=Roger Shields - The Age of Ragtime
DYEAR=2010
DGENRE=Jazz
TTITLE0=Turpin - Harlem Rag
TTITLE1=Hunter - Possum and Taters
TTITLE2=Lamb - Bohemia Rag
TTITLE3=Joplin - The Entertainer
TTITLE4=Joplin - Maple Leaf Rag
TTITLE5=Joplin - Reflection Rag
TTITLE6=Matthews - Passtime Rag 4
TTITLE7=Scott - Ragtime Oriole
TTITLE8=Hampton - Cataract Rag
TTITLE9=Gershwin/Donaldson - Rialto Ripples
TTITLE10=Roberts - Pork and Beans
TTITLE11=Europe - Castle House Rag
TTITLE12=Blake - Troublesome Ivories
EXTD=YEAR: 2010
EXTT0=
EXTT1=
EXTT2=
EXTT3=
EXTT4=
EXTT5=
EXTT6=
EXTT7=
EXTT8=
EXTT9=
EXTT10=
EXTT11=
EXTT12=
PLAYORDER=
